<svg xmlns="http://www.w3.org/2000/svg" width="320" height="320" viewBox="0 0 320 320"><rect width="320" height="320" fill="#fff"/><rect x="24" y="24" width="80" height="80" fill="#2f261f"/><rect x="40" y="40" width="48" height="48" fill="#fff"/><rect x="56" y="56" width="16" height="16" fill="#2f261f"/><rect x="216" y="24" width="80" height="80" fill="#2f261f"/><rect x="232" y="40" width="48" height="48" fill="#fff"/><rect x="248" y="56" width="16" height="16" fill="#2f261f"/><rect x="24" y="216" width="80" height="80" fill="#2f261f"/><rect x="40" y="232" width="48" height="48" fill="#fff"/><rect x="56" y="248" width="16" height="16" fill="#2f261f"/><g fill="#2f261f"><rect x="136" y="32" width="24" height="24"/><rect x="168" y="64" width="24" height="24"/><rect x="136" y="112" width="56" height="24"/><rect x="216" y="136" width="24" height="24"/><rect x="264" y="136" width="24" height="24"/><rect x="128" y="176" width="24" height="24"/><rect x="160" y="200" width="48" height="24"/><rect x="232" y="200" width="64" height="24"/><rect x="128" y="248" width="24" height="48"/><rect x="184" y="256" width="32" height="32"/><rect x="248" y="248" width="24" height="48"/></g></svg>
